<?xml version="1.0" encoding="utf-8"?>
<!-- Generator: Adobe Illustrator 25.2.0, SVG Export Plug-In . SVG Version: 6.00 Build 0)  -->
<svg version="1.1" id="Layer_1" xmlns="http://www.w3.org/2000/svg" xmlns:xlink="http://www.w3.org/1999/xlink" x="0px" y="0px"
	 viewBox="0 0 2500 569" style="enable-background:new 0 0 2500 569;" xml:space="preserve">
<style type="text/css">
	.st0{fill:none;stroke:#FEFEFE;stroke-miterlimit:10;}
	.st1{fill:#030303;}
</style>
<path class="st0" d="M164.3,500.4c-7.3-4.5-12.8-11.1-17.5-21.3c-3.6-8-4.4-11.9-4.8-25.8c-0.5-15.5-0.3-16.9,3.9-25
	c8.1-15.9,24.4-20.3,38.9-10.5c6.3,4.1,8.9,7.3,13.9,17.3c6.3,12.2,6.3,12.5,6.3,29.7c0,15.6-0.5,18-3.9,24.4
	c-5.6,9.8-12.5,14.1-23.3,14.1C171.9,503.4,167.4,502.4,164.3,500.4L164.3,500.4z M840.9,437.4c3.1-14.5,10.6-24.2,20-25.8
	c13.1-2,20.6,5.8,25.2,26.6l0.9,4.2h-47.2L840.9,437.4z M1387.8,436c3.4-21.3,21.1-31.7,34.4-20.2c5.3,4.7,10.3,15.8,10.3,23v3.6
	h-45.8L1387.8,436z M1577,436.6c2.7-15.2,11.9-25.5,22.7-25.5c10.5,0,17.7,7.8,21.3,23l1.9,8.3h-46.9L1577,436.6L1577,436.6z
	 M2009.9,500.4c-12.2-7.5-20.2-21.1-22.7-39.1c-4.4-31.1,9.5-51.7,32.3-48.1c11.1,1.9,20.3,10.9,26.9,26.6c3.4,8.3,4.1,12,4.1,25.3
	c0,13.8-0.5,16.7-4.1,23.4c-5.5,10.6-12,14.8-23.1,14.8C2017.5,503.4,2013,502.4,2009.9,500.4L2009.9,500.4z M1194.1,491.8
	c-20.3-9.4-19.7-39.2,1.1-55.8l7.8-6.1l8.8,6.9c10.6,8.1,21.1,19.2,28.4,29.7l5.2,7.8l-6.3,5.5
	C1225.5,491.8,1205.7,497.3,1194.1,491.8z M1208,413.3c-10.9-11.1-13.3-24.2-5.5-32c13.4-13.3,32.2,4.1,25,23.1
	c-1.6,4.4-10.5,14.5-12.7,14.5C1214.3,419,1211.2,416.5,1208,413.3L1208,413.3z M517.5,500.4c-6.4-1.6-13.3-5.3-18.4-10.2l-4.2-3.9
	l0.3-28.6l0.5-28.6l7.8-4.2c10.2-5.6,21.4-5.9,29.1-0.8c16.4,10.9,23,39.1,14.1,59.7c-3.1,7.2-13,16.4-17.3,16.4
	c-1.6,0-3.8,0.3-5,0.6C523.1,501.2,520.1,501,517.5,500.4z M983.9,233.2c-24.1-5-43.3-27.3-49.2-56.7c-2.8-14.1-3.1-38.9-0.6-52
	c3.6-19.7,15.9-38.8,30.2-46.7c21.6-12.2,50.2-8.4,66.9,8.9c14.7,15,21.7,35.9,21.7,65.2c0,37.7-13.6,65.9-37,77.5
	C1006.9,233.6,993.5,235.2,983.9,233.2L983.9,233.2z M2497.8,64.7c-2.8-26.9-28.1-54.2-57.5-62c-8.1-2.2-7-2.3,25.6-2.3l33.9-0.2
	v36.7c0,20.2-0.3,36.7-0.6,36.7S2498.3,69.5,2497.8,64.7z"/>
<path class="st1" d="M451,566.2c0-2,1.9-3.3,6.6-4.4c4.2-0.9,7.7-3,9.7-5.8c3.1-4.4,3.3-6.4,3.8-65.3c0.3-39.5-0.2-61.7-1.1-63.8
	c-1.1-1.9-4.1-3.4-8-4.1c-5.2-0.9-6.3-1.7-6.3-4.5c0-2.8,2.7-4.7,16.4-10.8c22.3-10,22.7-9.8,22.7,2.8c0,5.6,0.5,10.2,1.3,10.2
	c0.6,0,4.2-1.9,8.1-4.1c10.9-6.4,25.9-11.6,33.3-11.6c9.4,0,21.7,6.6,27.7,14.5c10.5,14.2,12.5,38.8,4.5,55.8
	c-10.6,22.8-33.9,37-58.1,35.6c-6.3-0.5-12.3-1.1-13.6-1.4c-2-0.5-2.3,2.7-2.3,22.5c0.2,27,0.9,28.6,14.5,30.3
	c6.6,0.8,8.1,1.4,8.1,3.7c0,2.8-1.9,3-33.6,3C453.2,569,451,568.8,451,566.2z M529.2,500.2c4.4,0,14.2-9.2,17.3-16.4
	c8.9-20.6,2.3-48.8-14.1-59.7c-7.7-5.2-18.9-4.8-29.1,0.8l-7.8,4.2l-0.5,28.6l-0.3,28.6l4.2,3.9c7.3,6.9,20,12.2,25.2,10.6
	C525.4,500.6,527.6,500.2,529.2,500.2L529.2,500.2z M34.6,511.3c-14.1-3.9-25-13-30.6-25.6C0.8,479,0.2,474.9,0.2,462
	c0-13.9,0.5-16.6,4.4-24.5c8.4-17.2,22.5-27.5,43.9-32c24.2-5,47.8,2.8,47.8,15.9c0,6.4-4.2,10.2-11.6,10.2c-4.8,0-7.2-1.3-13.9-7.7
	c-12.5-11.7-18.4-13.6-27.7-8.8c-11.1,5.6-17.5,20.5-17.7,39.9c-0.2,17.5,3.3,28,12.2,36.9c7.7,7.7,16.3,9.8,26.7,7
	c7.3-2,19.7-9.8,23.9-15.2c2.8-3.4,3-3.6,5.3-0.9c2.3,2.7,2,3.4-6.4,11.7c-11.4,11.3-23.8,17-37.7,17.7
	C43.9,512.4,37.2,512,34.6,511.3z M157.2,511c-16.7-3.3-31.1-14.4-38.1-29.4c-2.7-5.9-3.3-10.2-3.3-24.4c0-19.2,1.9-24.8,12.7-36.7
	c19.2-21.3,63.8-22.2,87-1.7c8.3,7.3,15.3,22.7,16.4,35.3C234.9,492.4,199.7,519.3,157.2,511z M191.8,499.8c3-1.9,7-6.7,9.2-10.5
	c3.4-6.4,3.9-8.8,3.9-24.4c0-17.2,0-17.5-6.3-29.7c-5-10-7.7-13.3-13.9-17.3c-14.5-9.8-30.8-5.5-38.9,10.5c-4.2,8.1-4.4,9.5-3.9,25
	c0.5,13.9,1.3,17.8,4.8,25.8c7.8,16.9,17.2,24.2,30.9,24.2C184.3,503.4,187.9,502.4,191.8,499.8L191.8,499.8z M625.3,511.6
	c-5.8-1.6-11.4-6.7-14.7-13.4c-3-6.3-3.3-9.5-3.3-39.2c0-18.9-0.6-33.6-1.6-35.3c-0.9-1.7-4.4-3.8-7.8-4.7c-4.5-1.3-6.3-2.5-6.3-4.5
	c0-2.5,2.5-3.6,13.8-6.1c7.5-1.7,16.3-3.6,19.4-4.2l5.6-1.1l0.6,39.7c0.5,44.7,1.3,48,11.7,52.4c7.3,3,14.2,1.7,26.7-5.2l9.7-5.5
	v-29.5c0-33.6-0.5-34.8-12-36.7c-9.1-1.6-9.8-2-9.8-5.3c0-2.5,1.4-3.3,7.5-4.1c4.1-0.6,13.6-2,21.3-3.3c7.7-1.3,14.8-2,15.9-1.6
	c1.7,0.6,2.2,10,2.5,46.6l0.5,45.8l7.8,0.2c6.6,0.2,7.8,0.6,7.8,3.1c0,2.5-3,3.9-17.2,8c-24.7,7-24.2,7.2-24.2-4.4v-9.5l-6.6,4.1
	C653.6,509.6,636.2,514.8,625.3,511.6z M761.1,511c-2.7-0.8-6.9-3.3-9.2-5.6c-8.3-8.3-9.1-12.3-9.8-50l-0.6-34.8h-5.5
	c-7.7,0-6.4-3,5-12c7.3-5.9,10.5-10,14.8-18.8c3.6-7.5,6.4-11.3,8.3-11.4c2.3,0,2.7,1.7,2.7,14.1v13.9l18.8,0.5l18.6,0.5l-3,6.7
	l-3,6.6h-31.4v30.2c0,16.4,0.8,32.7,1.7,35.9c2.2,8,6.9,12,14.1,12c4.8,0,7-1.1,11.4-5.6c4.7-4.7,5.9-5.5,8-3.8c2,1.6,2,2.5,0,6.3
	C795,509,777.2,515.7,761.1,511L761.1,511z M850.3,511.3c-14.7-3.7-26.7-14.8-31.6-28.8c-4.1-11.7-3.8-33.4,0.8-45
	c10.5-26.7,37.7-39.4,66.3-30.8c10.5,3.1,19.2,12.3,23.1,24.1c1.9,5.6,4.4,10.6,5.6,11.1c1.3,0.5,2.2,2.5,2.2,4.5v3.8h-77l1.1,8.9
	c4.2,36.3,38.8,50.2,63.9,25.8c5.3-5.2,5.9-5.5,8.3-3.1c2.5,2.3,2.2,3.1-2.5,8.9c-5.6,7.2-15,14.2-24.2,18.1
	C879.2,511.6,857.5,513.2,850.3,511.3L850.3,511.3z M886.1,438.2c-4.5-20.8-12-28.6-25.2-26.6c-9.4,1.6-16.9,11.3-20,25.8l-1.1,5
	H887L886.1,438.2z M1031.6,497.6c-1.4-17.3-1.4-16.9,1.9-16.9c1.4,0,3.1,2,4.1,4.7c3.7,11.7,13.4,19.5,24.1,19.5
	c7.3,0,12.2-3.1,14.2-9.2c2.8-8-2.5-15.5-20.3-29.2c-18.3-14.1-24.7-22.7-24.7-33c0-21.4,22-34.1,49.2-28.3l9.4,2l0.5,14.5
	c0.3,13,0.2,14.4-2.3,14.4c-2,0-3.8-2.3-5.6-7.7c-3.3-9.5-10.3-15.8-17.5-15.8c-7.3,0-10,1.3-12.7,6.4c-3.6,7,0.2,13.8,12.2,22.5
	c22.5,16.3,25.9,19.5,30,27.7c4.7,9.4,5,14.7,1.7,22.8c-3.1,7.3-7.8,12.3-15.6,16.4c-5.3,2.8-9.2,3.3-26.9,3.4l-20.5,0.3
	L1031.6,497.6L1031.6,497.6z M1394.5,510.6c-12.3-3.4-19.8-9.8-26.1-21.9c-5.2-10.3-5.5-11.6-5.5-27.3c0-15.3,0.3-17.3,4.8-26.7
	c8-16.4,17.8-24.7,34.8-29.1c11.7-3,21.9-2,33.3,2.8c9.5,4.1,15.8,11.3,19.2,21.9c1.6,4.5,4.1,9.7,5.6,11.6c1.7,1.7,3,4.4,3,5.8
	c0,2.3-3.4,2.7-38.3,2.7h-38.3v6.1c0,15.2,10.2,32.2,22.5,37.8c13,5.9,27,3.1,40.2-8c5.5-4.5,7.7-5.6,9.1-4.2
	c0.9,0.9,1.7,2.5,1.7,3.6c0,3.6-19.7,20.2-27.3,23C1422.9,512.3,1404.2,513.4,1394.5,510.6L1394.5,510.6z M1432.5,438.8
	c0-7.2-5-18.3-10.3-23c-13.3-11.6-30.9-1.1-34.4,20.2l-1.1,6.4h45.8V438.8z M1585.1,511c-8.9-2-13.9-5.2-20.5-12.5
	c-10-10.9-12.5-18.4-12.7-37.3c0-14.8,0.5-17.3,4.5-26.3c10.8-23.4,35.8-35.6,60.3-29.4c15.3,3.9,24.4,12.3,28.1,26.1
	c0.9,3.1,3,7.5,4.7,9.7c7,8.9,6.7,8.9-35.2,8.9h-38.3v6.3c0,8.4,5.5,22.5,11.4,29.2c13.4,15.3,35.3,15.2,52.5-0.3
	c5.8-5.3,6.6-5.6,8.8-3.3c2.3,2.2,2,3-2.5,8.8C1632.6,507.9,1607.5,516.3,1585.1,511L1585.1,511z M1620.9,434.1
	c-3.6-15.2-10.8-23-21.3-23c-10.8,0-20,10.3-22.7,25.5l-1.1,5.8h46.9L1620.9,434.1L1620.9,434.1z M1706.7,511.3
	c-19.8-5.3-32.8-21.6-34.7-43.9c-2-24.8,10.8-47,33-57c27-12.3,63.4-6.1,63.4,10.8c0,6.6-4.1,10.3-11.3,10.3
	c-4.5,0-7.3-1.7-16.1-9.4c-8.8-7.8-11.6-9.4-16.3-9.4c-17.7,0-30.8,25.6-26.7,51.9c3.7,24.5,16.9,37.7,35.3,35
	c8.8-1.1,13.6-3.6,23-11.9c6.7-6.1,7.8-6.4,10-4.4c2,2.2,1.4,3.3-6.3,11.1c-11.4,11.3-23.1,16.9-37.7,17.5
	C1716.4,512.4,1709.4,512.1,1706.7,511.3L1706.7,511.3z M1814.5,511.6c-5.6-1.4-13.6-8.6-16.6-15.2c-2.5-5.6-3-10.6-3-41.1v-34.9
	h-6.3c-8.6,0-8.1-3.1,1.6-10c8.9-6.4,15.9-15.3,19.7-25.3c2-5.5,3.3-6.9,6.4-6.9c3.8,0,3.8,0,3.3,14.1l-0.5,14.1h18.6
	c17,0,18.4,0.2,17.3,2.8c-0.6,1.4-1.9,4.5-2.7,7c-1.6,4.2-1.6,4.2-17,4.2H1820V489l4.1,4.8c3,3.6,5.3,4.8,9.2,4.8
	c7.3,0,9.8-1.3,13.9-7.2c3.4-5.2,3.6-5.3,6.3-2.3c2.7,3,2.7,3.3-0.5,7.8C1843.8,509.8,1829.4,515.2,1814.5,511.6z M2003.3,511.2
	c-23.3-5-38.4-20.3-42.7-43.3c-4.4-24.5,7.7-49.1,28.8-58.3c24.8-11.1,60.3-4.8,75.2,13.1c9.2,11.3,12.3,20.2,12.5,35.3
	c0,12-0.5,14.4-5.2,23.8c-9.1,18.6-26.6,29.4-49.2,30.3C2015.7,512.4,2006.9,512,2003.3,511.2L2003.3,511.2z M2037.2,499.9
	c3-2,7-7,9.2-11.4c3.6-6.7,4.1-9.7,4.1-23.4c0-13.3-0.6-17-4.1-25.3c-8.6-20.3-21.6-29.4-38-26.4c-30.2,5.6-29.2,68.3,1.4,87
	C2016.8,504.8,2030.5,504.5,2037.2,499.9L2037.2,499.9z M2338.7,511.3c-24.8-5.2-39.5-32.2-33.4-61.3c6.1-29.5,28.1-45.6,62.5-45.8
	c17,0,27.2,3.8,31.3,11.6c4.2,8-0.3,15.6-9.1,15.6c-5.8,0-9.7-2.3-20.2-12c-5.9-5.5-8.4-6.7-13.3-6.7c-8.8,0-16.6,5.9-21.9,16.7
	c-3.9,8.3-4.4,10.5-4.2,26.3c0,14.1,0.6,18.4,3.3,24.4c6.6,14.2,17.8,21.4,31.1,19.5c8.9-1.1,14.8-4.4,23.4-12.2
	c6.7-6.1,11.6-7.2,11.6-2.2c0,3.4-16.3,17.5-25.6,22C2365.1,511.6,2349,513.5,2338.7,511.3L2338.7,511.3z M2422.5,496.8
	c-0.6-8.6-0.8-15.9-0.3-16.4c1.9-1.9,5.5,1.1,6.4,5.3c1.6,5.9,8,14.1,13.4,16.9c10.2,5.3,23.4,1.3,25.6-7.8
	c1.9-7.5-3.3-14.2-21.1-28.3c-19.1-15-24.8-22.7-24.8-33.3c0-20.6,22.7-33.4,49.2-28l9.4,2l0.5,14.5c0.5,13.3,0.2,14.4-2.7,14.4
	c-2.2,0-3.3-1.4-3.9-5.5c-0.6-3.3-3.6-8.1-7-11.7c-5-5.3-6.9-6.3-12.3-6.3c-8,0-12.8,4.2-12.8,10.9c0,7.3,3.9,11.7,20.3,23.4
	c8.3,5.8,16.9,13.1,19.1,15.9c12.5,16.4,8.1,35.6-10.5,45.5c-5.5,2.8-9.1,3.3-26.9,3.4l-20.5,0.2L2422.5,496.8L2422.5,496.8z
	 M246.3,506.6c0-2,1.4-3.1,4.7-3.7c2.5-0.6,6.1-2.5,7.8-4.2c3-3,3.1-4.7,2.8-38l-0.5-34.7l-7.3-2.2c-5.9-1.7-7.5-3-7.5-5.6
	c0-2.8,2.5-4.1,18.4-9.1c10-3.3,19.2-5.8,20.3-5.8c1.3,0,1.9,3.1,1.9,10.2c0,5.6,0.3,10.2,0.6,10.2c0.3,0,5.8-3.1,12.2-7
	c14.1-8.8,30.3-14.1,38.4-12.5c7.8,1.4,15.3,7.3,17.7,14.1c1.1,3,2.5,5.5,3.1,5.5c0.6,0,6.3-3.1,12.7-7c28-17.3,48-16.6,56.4,2.2
	c3,6.4,3.4,10.9,3.9,41.9c0.6,31.7,0.9,34.8,3.8,38c1.7,1.7,5.2,3.6,7.7,4.2c3.1,0.6,4.5,1.9,4.5,3.7c0,2.8-1.7,3-28.9,3
	c-27.3,0-28.9-0.2-28.9-3c0-2.2,1.6-3.3,5.5-3.9c4.1-0.8,6.6-2.5,8.6-6.1c2.8-4.5,3.1-8,3.1-33.9c0-24.4-0.5-29.7-2.8-34.4
	c-5.6-11.4-17.3-12-34.4-2l-9.7,5.8v31.4c0,29.7,0.2,31.6,3.3,35c1.7,1.9,5.3,3.7,7.8,4.4c3.1,0.6,4.5,1.9,4.5,3.7
	c0,2.8-1.7,3-28.9,3c-26.9,0-28.9-0.2-28.9-2.8c0-2,1.7-3.3,5.9-4.4c9.8-2.3,11.3-7.5,11.3-38.9c0-37.2-2.7-44.5-15.9-44.5
	c-6.9,0-21.9,6.3-29.1,12.2c-3.8,2.8-3.8,3-3.1,33.4c0.5,34.2,1.1,36.1,11.6,38.1c3.8,0.6,5.3,1.9,5.3,3.9c0,2.8-1.6,3-28.9,3
	C248,509.6,246.3,509.5,246.3,506.6z M929.2,506.8c0-2,1.7-3.3,5.9-4.4c10.2-2.5,11.3-7,11.3-43.8v-31.4l-8.1-3
	c-5.9-2.2-8.4-3.9-8.8-6.1c-0.3-2.8,1.9-3.9,18.6-9.2c10.3-3.1,19.8-5.5,21.1-5c1.6,0.6,2.2,3.9,2.3,12.2c0,9.4,0.3,10.9,1.9,8.4
	c9.1-13.9,11.4-17,15.3-19.1c4.2-2,5.6-2,15.9,1.1c6.1,1.9,11.7,3.8,12.3,4.1c0.9,0.5-5.6,18.1-7.7,20.8c-0.3,0.3-5.5-0.9-11.4-3
	c-13-4.5-16.9-3.7-22.5,4.2c-4.1,5.9-4.1,6.3-4.1,33.8c0,15.2,0.6,29.1,1.6,30.6c1.9,3.4,9.5,6.3,17.3,6.3c5,0,6.1,0.5,6.1,3.1
	c0,3-1.1,3.1-33.6,3.1C931.4,509.6,929.2,509.5,929.2,506.8z M1474.6,506.6c0-2,1.6-3.1,5.6-3.7c3.1-0.6,7.3-2.5,9.4-4.4l3.8-3.4
	V361.3l-3.4-2.3c-1.9-1.4-5-2.5-6.9-2.5c-5.5,0-8.4-1.7-8.4-4.8c0-2.2,2.8-3.8,13.8-6.9c7.5-2.3,15.6-4.7,18.1-5.6
	c2.5-0.8,6.1-1.4,8.1-1.4h3.6l0.5,78.9c0.5,77.7,0.5,78.9,3.8,82c1.9,1.9,6.3,3.8,9.8,4.2c4.8,0.6,6.4,1.6,6.4,3.8c0,2.8-1.7,3-32,3
	C1476.4,509.6,1474.6,509.5,1474.6,506.6L1474.6,506.6z M1860.6,506.5c0-2.3,1.1-3.1,4.1-3.1c2.3,0,5.9-1.9,8.6-4.5l4.5-4.5v-67.4
	l-8.1-3c-13.3-5-11.6-7.5,9.7-14.7c9.8-3.3,19.1-5.9,20.6-5.9c2.5,0,2.8,1.6,2.8,12.8V429l6.7-10c3.6-5.5,8.4-11.3,10.6-13
	c3.9-2.8,4.2-2.8,16.4,0.6c6.7,2,12.5,3.8,12.8,3.9c1.1,0.6-7,19.8-8.8,20.5c-1.1,0.5-5.6-0.8-10.3-2.7c-11.7-4.7-16.1-3.8-22.5,4.5
	l-5.2,6.9l0.5,27.8c0.5,26.3,0.6,28.1,3.9,31.3c2.3,2.5,5.9,3.8,12,4.2c7.2,0.6,8.8,1.3,8.8,3.6c0,2.8-1.7,3-33.6,3
	C1861.7,509.6,1860.6,509.5,1860.6,506.5L1860.6,506.5z M2090.4,506.6c0-2,1.6-3.3,5.3-3.9c10.5-2,11.1-3.7,11.6-39.4
	c0.3-20.8-0.2-32.8-1.3-35c-0.9-1.9-4.5-3.8-8.8-4.8c-5.8-1.6-7-2.3-6.6-5.2c0.3-2.7,3.6-4.4,18.9-9.2c10.2-3.4,19.4-5.6,20.6-5.2
	c1.7,0.6,2.3,3.4,2.3,10.3c0,5.2,0.5,9.4,1.3,9.4c0.6,0,3.3-1.4,5.8-3.3c8.8-5.9,29.2-15.3,35.9-16.4c5-0.6,8.4-0.2,13.8,2.2
	c14.4,6.4,17.5,17.8,15.9,58.1c-0.9,28.1-0.9,29.1,2.3,33.3c2.2,2.8,5.5,4.5,9.5,5.2c4.5,0.8,6.1,1.7,6.1,3.9c0,2.8-1.7,3-31.3,3
	c-29.1,0-31.3-0.2-31.3-2.8c0-2,1.9-3.3,6.6-4.4c5.2-1.1,7.3-2.7,9.7-6.9c2.8-4.8,3.3-8.9,3.8-32.2c0.6-24.4,0.3-27.3-2.5-34.1
	c-5.6-12.5-16.6-13.3-35-2.3l-10.6,6.3v29.5c0,18.3,0.6,30.9,1.7,33.3c1.9,4.1,7.3,7.3,12.3,7.3c2,0,3.1,1.1,3.1,3.1
	c0,3-1.1,3.1-29.7,3.1C2091.9,509.6,2090.4,509.5,2090.4,506.6L2090.4,506.6z M2227.9,506.5c0-2.3,1.1-3.1,3.9-3.1
	c6.4,0,12.8-4.2,14.7-9.5c1.1-3,1.7-17.5,1.7-36.7c0-34.9-0.2-35.5-9.7-37.3c-9.2-1.9-10.6-2.5-10.6-5.2c0-2.2,4.5-3.9,21.3-8.6
	c11.6-3.1,21.9-5.5,22.7-5c0.8,0.6,1.4,20.2,1.4,46.9c0,25.2,0.5,47,0.9,48.4c1.3,3,8.6,7,13.1,7c2,0,3.1,1.1,3.1,3.1
	c0,3-1.1,3.1-31.3,3.1C2229,509.6,2227.9,509.5,2227.9,506.5z M1185.8,504.1c-15.2-4.7-25.3-18.8-25.3-35
	c0.2-16.1,9.4-28.3,28.1-37.2c4.7-2.2,8.8-4.2,9.1-4.4c0.3-0.3-1.9-3.8-4.8-7.7c-7-8.9-9.5-16.6-8.4-25.5
	c1.6-13.8,13-22.3,29.8-22.3c30.6,0,38.6,26.3,13.4,44.1l-9.1,6.4l7.2,5.8c7.7,6.1,20.3,19.1,27,28l4.1,5.2l7-9.8
	c13.4-18.9,18.4-27.2,19.4-32.2c0.9-5,0.8-5.2-5.5-6.1c-3.8-0.6-6.3-1.7-5.9-2.8c0.3-1.1,7.5-1.9,20.3-2.2c17-0.3,19.8,0,19.8,2
	c0,1.4-1.4,2.3-3.4,2.3c-2,0-6.1,0.8-9.2,1.6c-4.8,1.4-7.3,4.2-20.3,23.6c-8.1,12.2-15.6,23.6-16.9,25.5c-1.9,3-1.4,4.5,5.9,17
	c6.1,10.2,9.5,14.4,13.4,16.3c5.2,2.5,5.6,2.3,13.6-1.6c5.3-2.7,8.8-3.6,9.7-2.7c1.9,1.9-1.6,4.7-11.6,9.7
	c-8.9,4.4-22.5,4.8-28.1,0.8c-3.4-2.3-14.7-17.8-16.1-22.2c-0.3-0.8-3.1,0.6-6.4,3.1c-14.5,11.7-22.7,16.7-31.9,19.5
	C1199.3,507,1195.2,507.1,1185.8,504.1L1185.8,504.1z M1225.2,489.3c4.2-2.2,10.5-6.4,13.9-9.5l6.3-5.5l-5.2-7.8
	c-7.3-10.5-17.8-21.6-28.4-29.7l-8.8-6.9l-7.8,6.1c-20.8,16.6-21.4,46.4-1.1,55.8C1201.2,495.1,1216,493.8,1225.2,489.3
	L1225.2,489.3z M1221,414c8.3-8.6,10.5-18.9,5.9-27.8c-5.3-10.3-16.6-12.5-24.4-4.8c-5.2,5.3-5.9,12.3-2.3,21.1
	c2,5,12.3,16.6,14.7,16.6C1215.7,419,1218.4,416.6,1221,414L1221,414z M2253.7,370.8c-11.9-3.9-15.2-14.2-7.2-22.3
	c12.5-12.3,35.5,1.6,25.8,15.6c-1.4,2-5,4.5-7.8,5.8C2258.8,372.2,2258.4,372.2,2253.7,370.8z M971,304.9
	c-56.3-10.2-101.7-51.7-116.6-106.4c-3.3-12-6.7-43.9-5.6-52.2c0.3-2.5,0.9-9.2,1.6-14.8c5.6-58.6,51.1-109.7,113.3-127.4
	c16.3-4.7,45.2-3.9,63.1,1.4c16.7,5,35,13.9,48.3,23.3c12.8,9.1,31.7,29.2,39.1,41.3c32.5,53.6,29.4,130.8-7.3,179.7
	c-18.6,24.7-47.4,43.6-79.9,52.4C1014.4,305.5,982.7,307.1,971,304.9L971,304.9z M1015.8,229.3c23.4-11.6,37-39.9,37-77.5
	c0-48-21.7-78.9-56.9-81c-18.3-1.1-32.7,4.5-44.7,17.7c-13,14.1-18.9,33-18.9,60.5c0,29.8,7.7,53,22.5,67.7
	C972.4,234.1,996.1,238.9,1015.8,229.3L1015.8,229.3z M1344.9,299.3c-11.9-3.1-33-13.4-44.5-21.7c-40-28.4-60.9-83.3-55.5-145.2
	c5.5-61.7,39.1-105,98.9-127.2l11.3-4.2l138-0.5L1630.9,0v72h-122.4c-104.9,0-123.6,0.3-131.6,2.3c-36.4,9.5-55.6,39.2-53.4,82.8
	c1.6,31.9,14.1,51.4,40.2,61.9c7.7,3.1,12,3.6,39.5,4.2l30.8,0.6v77.8l-40.2-0.2C1363.8,301.6,1351.3,301,1344.9,299.3z M1657.5,151
	V0l83.3,0.5l83.1,0.5l8.1,4.2c12,6.4,24.8,19.7,30.2,31.3c10,22.3,9.8,20.2,10.9,119.2c0.9,87.5,1.1,91,4.4,100.8
	c3.9,11.9,11.6,25.2,20.5,35.5c3.4,4.1,5.9,8,5.5,8.6c-0.5,0.6-18.3,1.3-39.9,1.3h-38.9l-6.3-5.8c-7.5-6.7-17-25.5-21.7-42.7
	c-3.1-11.1-3.3-15.8-3.3-94.5c0-62.5-0.5-83.5-1.9-84.9c-1.3-1.3-10-1.9-28.9-1.9h-27l-0.3,114.6l-0.5,114.4l-38.6,0.5l-38.8,0.3
	V151z M1959.1,300.7c-2.2-0.5-9.1-3.1-15.2-6.1c-14.4-6.9-26.1-18.3-33.4-32.7c-10.5-20.5-10.9-24.2-10.5-89.1l0.5-57.8l38-0.5
	l37.8-0.3v42.7c0,47.2,1.3,55.9,8.9,61.9c3.9,3.1,5.9,3.3,49.7,3.3c42.2,0,45.8-0.2,48.1-2.8c2.3-2.7,2.7-8.6,2.7-53.9v-51.1h187.5
	v70.3h-106.3v43.8h106.3v73.4l-155-0.2C2032.9,301.5,1961.3,301,1959.1,300.7L1959.1,300.7z"/>
<path class="st1" d="M2412,251.9l-0.5-49.9l-4.8-5.9c-10.3-12.8-7.5-12.3-61.7-12.8l-48.3-0.5v-68.6h58.8c57,0,59.1-0.2,64.2-3.3
	c6.7-4.2,9.8-10.3,9.8-19.4c0-5.9-0.9-8.1-5.3-13l-5.3-5.8L2251.8,72l-166.9-0.8l-0.5-35.5l-0.3-35.6h173.2
	c190.8,0,181.6-0.5,201,9.8c29.9,15.6,46.1,50.9,40.3,88c-3.7,24.2-19.2,45.5-41.3,56.9l-10.5,5.5l9.1,3.1
	c13.9,5.2,19.8,9.4,23.9,17.7c3.6,7.2,3.6,8.3,4.1,64.1l0.5,56.6h-71.9L2412,251.9L2412,251.9z M10.3,152.5V4.8h120
	c130,0,130,0,144.6,8.6c13.3,7.7,20.2,17.8,25.3,37.5c2,8,2.3,26.4,2.3,129.2v120h-78.1V191.6c0-121.4,0.5-116.4-10.6-119.6
	c-3.8-1.1-26.4-1.6-67.5-1.3l-61.7,0.5l-0.5,114.6l-0.3,114.4H10.3V152.5z"/>
<path class="st1" d="M116.6,207.2v-93h71.9v186h-71.9V207.2z M332.3,152.5V4.8h81.3v295.4h-81.3V152.5z M532.3,296.5
	c-22.2-7.7-38.8-17.8-55.3-33.6c-24.2-23.3-36.9-48.8-42.4-85.2c-9.4-63.3,11.6-113.9,61.3-147.7c12.3-8.4,35.8-19.4,53.1-24.7
	l13.8-4.4l104.5-0.5C738,0.2,774.5,0.6,779.8,1.7c13,2.8,29.1,11.4,38.1,20.6c15.3,15.5,20.5,28.1,21.7,52.8
	c1.7,34.2-10.8,59.9-37.7,77.4c-10,6.4-11.4,8-8.4,8.3c2,0.3,7.5,2.3,12.2,4.7c7.2,3.6,9.2,5.5,13,12.7l4.2,8.6v113.5h-70.3v-95
	l-4.4-8.1c-7.5-14.4-8.6-14.7-63.6-15.6l-46.9-0.8l-0.5-33.1l-0.3-33.3h57.4c54.9,0,57.7-0.2,62.7-3.1c10.3-6.4,12.2-21.6,3.7-31.6
	c-7.8-9.2-5.8-9.1-105.6-9.1h-91.4L553.2,76c-30.9,16.1-46.6,41.9-46.6,77.4c-0.2,35.9,14.8,59.5,45.3,71.4c10,3.9,13,4.2,40.2,4.8
	l29.2,0.6v70H582C544.8,300.2,541.8,299.9,532.3,296.5z M1451.2,209.6v-90.6h179.7v65.6h-101.6v40.6h101.6v75h-179.7V209.6z
	 M1893.5,36.1V0.2h175V72h-175V36.1z"/>
</svg>
